<svg xmlns="http://www.w3.org/2000/svg" width="50" height="50" viewBox="0 0 50 50" version="1.1">
	<path d="" stroke="none" fill="currentColor" fill-rule="evenodd" />
	<path d="M 16 2.937 C 15.175 3.388, 12.835 4.469, 10.799 5.339 C 5.622 7.552, 4.323 10.220, 3.565 20.196 C 2.910 28.812, 2.929 28.907, 5.553 30.627 C 9.311 33.089, 11.577 31.481, 11.161 26.649 C 10.988 24.642, 11.288 23, 11.827 23 C 12.366 23, 13.132 27.760, 13.528 33.577 C 14.437 46.908, 15.306 48, 25 48 C 34.694 48, 35.563 46.908, 36.472 33.577 C 36.868 27.760, 37.634 23, 38.174 23 C 38.715 23, 39.009 24.632, 38.828 26.628 C 38.391 31.455, 40.688 33.090, 44.447 30.627 C 47.071 28.907, 47.090 28.812, 46.435 20.196 C 45.677 10.221, 44.378 7.552, 39.201 5.338 C 37.165 4.468, 34.719 3.361, 33.764 2.878 C 31.597 1.783, 18.030 1.828, 16 2.937 M 17.610 25.573 C 17.256 26.497, 17.462 27.852, 18.069 28.583 C 18.676 29.314, 18.864 30.410, 18.488 31.019 C 18.112 31.628, 18.636 33.063, 19.652 34.209 C 20.990 35.717, 21.155 36.413, 20.250 36.729 C 19.563 36.970, 19 37.547, 19 38.012 C 19 39.438, 22.105 42.053, 23.081 41.450 C 24.494 40.577, 24.208 31.251, 22.750 30.659 C 21.776 30.264, 21.798 29.943, 22.848 29.206 C 23.590 28.686, 24.036 27.414, 23.840 26.380 C 23.364 23.876, 18.503 23.246, 17.610 25.573 M 26.667 24.667 C 25.551 25.782, 25.922 28.797, 27.250 29.417 C 28.250 29.883, 28.250 30.117, 27.250 30.583 C 25.795 31.262, 25.512 40.580, 26.919 41.450 C 27.895 42.053, 31 39.438, 31 38.012 C 31 37.547, 30.438 36.970, 29.750 36.729 C 28.845 36.413, 29.010 35.717, 30.348 34.209 C 31.364 33.063, 31.888 31.628, 31.512 31.019 C 31.136 30.410, 31.324 29.314, 31.931 28.583 C 33.528 26.659, 32.152 24, 29.560 24 C 28.335 24, 27.033 24.300, 26.667 24.667" stroke="none" fill="currentColor" fill-rule="evenodd" />
</svg>