<svg xmlns="http://www.w3.org/2000/svg" width="50" height="50" viewBox="0 0 50 50" version="1.1">
	<path d="" stroke="none" fill="currentColor" fill-rule="evenodd" />
	<path d="M 20 3.339 C 20 4.719, 15.969 7, 13.530 7 C 12.773 7, 10.836 8.108, 9.227 9.463 C 6.604 11.669, 6.232 12.728, 5.648 19.632 C 5.108 26.028, 5.279 27.650, 6.653 29.170 C 9.715 32.553, 11.317 31.509, 10.753 26.500 C 10.474 24.025, 10.553 22, 10.928 22 C 11.688 22, 14.537 36.645, 14.234 39 C 14.128 39.825, 13.749 42.188, 13.393 44.250 L 12.744 48 25 48 L 37.256 48 36.607 44.250 C 36.251 42.188, 35.872 39.825, 35.766 39 C 35.463 36.645, 38.312 22, 39.072 22 C 39.447 22, 39.526 24.025, 39.247 26.500 C 38.683 31.509, 40.285 32.553, 43.347 29.170 C 44.721 27.650, 44.892 26.028, 44.352 19.632 C 43.768 12.728, 43.396 11.669, 40.773 9.463 C 39.164 8.108, 37.227 7, 36.470 7 C 34.031 7, 30 4.719, 30 3.339 C 30 2.603, 29.550 2, 29 2 C 27.558 2, 27.770 7.020, 29.493 13.633 C 30.650 18.076, 30.764 20.727, 30 25.432 C 29.458 28.769, 29.012 33.588, 29.008 36.139 C 29.002 39.317, 28.370 41.522, 27 43.139 L 25 45.500 23 43.139 C 21.630 41.522, 20.998 39.317, 20.992 36.139 C 20.988 33.588, 20.542 28.769, 20 25.432 C 19.236 20.727, 19.350 18.076, 20.507 13.633 C 22.230 7.020, 22.442 2, 21 2 C 20.450 2, 20 2.603, 20 3.339" stroke="none" fill="currentColor" fill-rule="evenodd" />
</svg>