<svg version="1.0" xmlns="http://www.w3.org/2000/svg"
	width="50.000000pt" height="50.000000pt" viewBox="0 0 50.000000 50.000000"
	preserveAspectRatio="xMidYMid meet">

	<g transform="translate(0.000000,50.000000) scale(0.100000,-0.100000)"
		fill="currentColor" stroke="none">
		<path d="M102 428 c0 -29 -3 -73 -7 -98 -5 -34 -2 -59 14 -105 23 -65 26 -95
11 -95 -5 0 -10 8 -10 17 0 16 -1 16 -16 1 -15 -14 -15 -21 -4 -48 20 -49 49
-80 75 -80 47 0 49 15 58 343 l3 117 -63 0 -62 0 1 -52z m45 -70 l10 -23 7 23
c10 29 20 28 34 -3 25 -55 3 -137 -37 -140 -38 -3 -62 76 -45 143 4 12 10 22
14 22 4 0 11 -10 17 -22z" />
		<path d="M277 363 c9 -328 11 -343 58 -343 26 0 55 31 75 80 11 27 11 34 -4
48 -15 15 -16 15 -16 -1 0 -9 -4 -17 -10 -17 -15 0 -12 30 11 95 16 46 19 71
14 105 -4 25 -7 69 -7 98 l1 52 -62 0 -63 0 3 -117z m60 -5 l10 -23 7 23 c14
44 36 12 35 -53 0 -83 -58 -123 -85 -59 -17 41 -18 75 -2 109 14 31 22 32 35
3z" />
	</g>
</svg>