<svg version="1.0" xmlns="http://www.w3.org/2000/svg"
	width="50.000000pt" height="50.000000pt" viewBox="0 0 50.000000 50.000000"
	preserveAspectRatio="xMidYMid meet">

	<g transform="translate(0.000000,50.000000) scale(0.100000,-0.100000)"
		fill="currentColor" stroke="none">
		<path d="M134 456 c-69 -32 -95 -67 -93 -125 1 -25 -2 -62 -6 -81 -6 -32 -4
-37 24 -53 37 -22 51 -16 51 24 0 16 4 29 9 29 10 0 21 -73 21 -141 0 -65 29
-89 110 -89 81 0 110 24 110 89 0 68 11 141 21 141 5 0 9 -13 9 -29 0 -40 14
-46 51 -24 28 16 30 21 24 53 -4 19 -7 56 -6 81 2 59 -25 94 -96 125 -71 32
-159 32 -229 0z m77 -78 l39 -23 39 23 c72 41 108 22 98 -50 -9 -71 -73 -102
-117 -58 l-20 20 -20 -20 c-44 -44 -108 -13 -117 58 -10 72 26 91 98 50z" />
	</g>
</svg>