<svg version="1.0" xmlns="http://www.w3.org/2000/svg"
	width="50.000000pt" height="50.000000pt" viewBox="0 0 50.000000 50.000000"
	preserveAspectRatio="xMidYMid meet">

	<g transform="translate(0.000000,50.000000) scale(0.100000,-0.100000)"
		fill="currentColor" stroke="none">
		<path d="M95 438 c-3 -24 -11 -65 -17 -92 -7 -32 -8 -78 -2 -130 4 -45 7 -107
6 -138 l-1 -58 59 0 59 0 6 38 c3 20 10 62 16 92 6 30 13 83 16 118 6 73 23
84 23 14 0 -26 7 -74 15 -105 8 -32 15 -70 15 -85 0 -65 7 -72 71 -72 l58 0
-1 58 c-1 31 2 93 6 138 6 52 5 98 -2 130 -6 27 -14 68 -17 92 l-7 42 -148 0
-148 0 -7 -42z m92 -165 c10 -34 8 -192 -2 -201 -4 -4 -14 3 -22 16 -15 21
-17 21 -34 6 -17 -16 -18 -13 -12 72 5 90 21 134 48 134 8 0 18 -12 22 -27z
m177 5 c7 -13 16 -63 19 -112 6 -85 5 -88 -12 -72 -17 15 -19 15 -34 -6 -8
-13 -18 -20 -22 -16 -10 9 -12 167 -2 201 9 33 32 35 51 5z" />
	</g>
</svg>