<svg version="1.0" xmlns="http://www.w3.org/2000/svg"
	width="50.000000pt" height="50.000000pt" viewBox="0 0 50.000000 50.000000"
	preserveAspectRatio="xMidYMid meet">

	<g transform="translate(0.000000,50.000000) scale(0.100000,-0.100000)"
		fill="currentColor" stroke="none">
		<path d="M85 384 c-14 -74 -16 -112 -9 -172 4 -42 7 -103 6 -134 l-1 -58 53 0
c59 0 66 8 66 76 0 17 7 51 15 74 8 24 18 67 21 97 4 29 10 53 14 53 4 0 10
-24 14 -53 3 -30 13 -73 21 -97 8 -23 15 -57 15 -74 0 -68 7 -76 66 -76 l53 0
-1 58 c-1 31 2 92 6 134 7 60 5 98 -9 172 l-18 96 -147 0 -147 0 -18 -96z m84
-102 c31 -135 26 -172 -21 -172 -38 0 -68 97 -54 172 6 33 44 104 51 96 2 -2
13 -45 24 -96z m227 32 c30 -79 3 -204 -45 -204 -47 0 -50 45 -15 198 19 82
30 83 60 6z" />
	</g>
</svg>