<svg version="1.0" xmlns="http://www.w3.org/2000/svg"
	width="50.000000pt" height="50.000000pt" viewBox="0 0 50.000000 50.000000"
	preserveAspectRatio="xMidYMid meet">

	<g transform="translate(0.000000,50.000000) scale(0.100000,-0.100000)"
		fill="currentColor" stroke="none">
		<path d="M134 456 c-69 -32 -95 -67 -93 -125 1 -25 -2 -62 -6 -81 -6 -32 -4
-37 24 -53 40 -24 51 -16 51 39 0 24 4 44 9 44 8 0 21 -103 21 -177 0 -59 32
-83 110 -83 78 0 110 24 110 83 0 74 13 177 21 177 5 0 9 -20 9 -44 0 -55 11
-63 51 -39 28 16 30 21 24 53 -4 19 -7 56 -6 81 2 59 -25 94 -96 125 -71 32
-159 32 -229 0z m40 -32 c11 -28 6 -62 -10 -78 -16 -16 -59 -21 -88 -10 -34
13 -11 62 40 89 37 19 50 19 58 -1z m199 7 c53 -21 86 -81 51 -95 -29 -11 -72
-6 -88 10 -16 16 -21 50 -10 78 7 19 14 19 47 7z" />
	</g>
</svg>