<svg version="1.0" xmlns="http://www.w3.org/2000/svg"
	width="50.000000pt" height="50.000000pt" viewBox="0 0 50.000000 50.000000"
	preserveAspectRatio="xMidYMid meet">

	<g transform="translate(0.000000,50.000000) scale(0.100000,-0.100000)"
		fill="currentColor" stroke="none">
		<path d="M129 455 c-66 -33 -90 -68 -88 -124 1 -25 -2 -62 -6 -81 -6 -32 -4
-37 24 -53 17 -10 36 -15 41 -12 6 3 10 28 10 56 0 27 4 49 9 49 8 0 21 -116
21 -191 0 -54 34 -79 110 -79 76 0 110 25 110 79 0 75 13 191 21 191 5 0 9
-22 9 -49 0 -28 4 -53 10 -56 5 -3 24 2 41 12 28 16 30 21 24 53 -4 19 -7 56
-6 81 2 58 -23 92 -96 126 -59 28 -80 25 -42 -6 l24 -19 -21 -29 c-19 -25 -28
-28 -74 -28 -46 0 -55 3 -74 28 l-21 29 23 18 c45 37 20 39 -49 5z" />
	</g>
</svg>