<svg version="1.0" xmlns="http://www.w3.org/2000/svg"
	width="50.000000pt" height="50.000000pt" viewBox="0 0 50.000000 50.000000"
	preserveAspectRatio="xMidYMid meet">

	<g transform="translate(0.000000,50.000000) scale(0.100000,-0.100000)"
		fill="currentColor" stroke="none">
		<path d="M39 432 c-27 -24 -33 -37 -36 -83 -9 -103 43 -255 99 -291 16 -10 50
-14 118 -14 112 1 141 16 181 91 13 25 29 45 36 45 6 0 23 14 38 32 23 27 26
39 22 77 -4 35 -13 52 -37 74 -29 25 -39 29 -77 24 -49 -5 -88 -34 -97 -73 -5
-17 -13 -24 -32 -24 -30 0 -84 -26 -84 -41 0 -18 -16 -6 -54 39 -42 51 -44 61
-13 55 29 -6 71 37 63 64 -7 21 -55 53 -80 53 -9 0 -30 -13 -47 -28z m354
-269 c-12 -34 -45 -73 -73 -88 -31 -16 -92 -19 -124 -6 -18 7 -18 8 5 24 13 9
42 17 65 17 33 0 51 7 84 35 48 40 52 42 43 18z" />
	</g>
</svg>